<svg xmlns="http://www.w3.org/2000/svg" viewBox="0 0 1390.49 723.24"><defs><style>.cls-1{fill:#1d1d1b;}</style></defs><title>logo</title><g id="Capa_2" data-name="Capa 2"><g id="Livello_1" data-name="Livello 1"><path class="cls-1" d="M1381.22,177.82c6.13-8.17,9.27-16.51,9.27-25,0-40.66-72.29-78.71-203.56-107.13-63.41-13.73-137-24.47-217-31.89q-44.67-4.4-89.47-7.27Q789.18.58,697.62.06c-61-.36-122,.85-183,4.11Q491.76,5.38,468.92,7t-45.65,3.6c-30.41,2.68-60.8,5.87-91.09,9.87s-60.51,8.63-90.6,14.19S181.56,46.71,152,54.8c-14.8,4.06-29.5,8.51-44.06,13.55a420,420,0,0,0-43,17.32c-14,6.77-27.76,14.32-40.17,24.52a82,82,0,0,0-16.7,18c-.57.89-1.16,1.77-1.72,2.68L4.82,133.7c-.25.48-.51.95-.74,1.44l-.63,1.51c-.4,1-.86,2-1.21,3.05a39.53,39.53,0,0,0,0,26.31c.35,1,.8,2,1.21,3.05l.63,1.51c.23.49.49,1,.74,1.44l1.51,2.85c.56.9,1.14,1.79,1.72,2.68l.19.28-.2.28c-.57.89-1.16,1.77-1.72,2.68l-1.51,2.85c-.25.48-.51.95-.74,1.44l-.63,1.51c-.4,1-.86,2-1.21,3.05a39.53,39.53,0,0,0,0,26.31c.35,1,.8,2,1.21,3.05l.63,1.51c.23.49.49,1,.74,1.44l1.51,2.85c.56.9,1.14,1.79,1.72,2.68l.19.27L8,228c-.57.89-1.16,1.77-1.72,2.68l-1.51,2.85c-.25.48-.51.95-.74,1.44l-.63,1.51c-.4,1-.86,2-1.21,3.05a39.53,39.53,0,0,0,0,26.31c.35,1,.8,2,1.21,3.05l.63,1.51c.23.49.49,1,.74,1.44l1.51,2.85c.56.9,1.14,1.79,1.72,2.68l.19.27L8,278c-.57.89-1.16,1.77-1.72,2.68l-1.51,2.85c-.25.48-.51.95-.74,1.44l-.63,1.51c-.4,1-.86,2-1.21,3.05a39.53,39.53,0,0,0,0,26.31c.35,1,.8,2,1.21,3.05l.63,1.51c.23.49.49,1,.74,1.44l1.51,2.85c.56.9,1.14,1.79,1.72,2.68l.19.28-.2.28c-.57.89-1.16,1.77-1.72,2.68l-1.51,2.85c-.25.48-.51.95-.74,1.44l-.63,1.51c-.4,1-.86,2-1.21,3.05a39.53,39.53,0,0,0,0,26.31c.35,1,.8,2,1.21,3.05l.63,1.51c.23.49.49,1,.74,1.44l1.51,2.85c.56.9,1.14,1.79,1.72,2.68l.19.27-.2.28c-.57.89-1.16,1.77-1.72,2.68l-1.51,2.85c-.25.48-.51.95-.74,1.44l-.63,1.51c-.4,1-.86,2-1.21,3.05a39.53,39.53,0,0,0,0,26.31c.35,1,.8,2,1.21,3.05l.63,1.51c.23.49.49,1,.74,1.44l1.51,2.85c.56.9,1.14,1.79,1.72,2.68l.19.27-.19.28c-.57.89-1.16,1.77-1.72,2.68l-1.51,2.85c-.25.48-.51.95-.74,1.44l-.63,1.51c-.4,1-.86,2-1.21,3.05a39.53,39.53,0,0,0,0,26.31c.35,1,.8,2,1.21,3.05l.63,1.51c.23.49.49,1,.74,1.44l1.51,2.85c.56.9,1.14,1.79,1.72,2.68a82,82,0,0,0,16.7,18c12.41,10.2,26.2,17.76,40.17,24.52a422.08,422.08,0,0,0,43,17.31c14.55,5,29.26,9.49,44.06,13.55,29.6,8.08,59.55,14.55,89.63,20.14s60.3,10.24,90.59,14.19q22.72,3,45.5,5.42c15.19,1.62,30.38,3.13,45.59,4.44s30.42,2.55,45.65,3.6,30.46,2,45.7,2.82c61,3.25,122,4.47,183,4.11s122-2.51,182.85-6.49q43.31-2.8,86.51-7c81.17-7.43,155.75-18.26,219.95-32.16,131.27-28.43,203.56-66.48,203.56-107.13,0-8.46-3.14-16.8-9.27-25,6.13-8.17,9.27-16.51,9.27-25s-3.14-16.8-9.27-25c6.13-8.17,9.27-16.51,9.27-25s-3.14-16.8-9.27-25c6.13-8.17,9.27-16.51,9.27-25s-3.14-16.8-9.27-25c6.13-8.17,9.27-16.51,9.27-25s-3.14-16.8-9.27-25c6.13-8.17,9.27-16.51,9.27-25S1387.35,186,1381.22,177.82Zm-46.9,331.79c-34.74,17.79-84.5,33.77-147.91,47.5-58.15,12.59-124.84,22.66-197.24,30q-8.88.84-17.75,1.63-22.76,2-45.55,3.59t-45.6,2.82c-60.83,3.25-121.75,4.46-182.64,4.1s-121.77-2.5-182.5-6.48-121.33-9.8-181.56-18.15q-45.17-6.22-89.93-14.76c-29.81-5.73-59.42-12.46-88.6-20.51-14.58-4.06-29-8.5-43.27-13.48a421.08,421.08,0,0,1-41.73-17c-13.41-6.5-26.52-13.78-37.68-23A70.3,70.3,0,0,1,18,470.52l-1.37-2.13-1.15-2.2c-.19-.37-.4-.73-.57-1.1L14.49,464c-.29-.76-.65-1.5-.9-2.26a27.7,27.7,0,0,1,0-18.56c.25-.76.61-1.5.9-2.26l.46-1.13c.17-.37.38-.73.57-1.1l.71-1.34a102.56,102.56,0,0,0,8.52,7.84c12.41,10.2,26.2,17.75,40.17,24.52a422,422,0,0,0,43,17.31c14.55,5,29.26,9.49,44.06,13.55,29.6,8.08,59.55,14.55,89.63,20.14s60.3,10.24,90.59,14.19q22.72,3,45.5,5.42c15.19,1.62,30.38,3.13,45.59,4.44s30.42,2.55,45.65,3.6,30.46,2,45.7,2.82c61,3.25,122,4.47,183,4.11s122-2.51,182.85-6.49q43.32-2.8,86.53-7c81.16-7.43,155.74-18.26,219.93-32.16,101.74-22,168-49.85,192.72-80.17,5.54,7.56,8.33,15.23,8.33,23C1388,472.13,1369.93,491.38,1334.32,509.61ZM1186.4,48.17c63.41,13.73,113.18,29.71,147.91,47.5,35.61,18.23,53.67,37.48,53.67,57.19,0,7.74-2.8,15.41-8.33,23-24.68-30.33-91-58.14-192.72-80.17C1123.53,81.92,1050,71.18,970,63.77q-44.68-4.4-89.51-7.27-91.29-6-182.86-6.5c-61-.36-122,.85-183,4.11q-22.86,1.21-45.7,2.82t-45.65,3.6c-30.41,2.68-60.8,5.87-91.09,9.87S271.67,79,241.58,84.58s-60,12.06-89.63,20.15c-14.8,4.06-29.5,8.51-44.06,13.55a420,420,0,0,0-43,17.32c-14,6.77-27.76,14.32-40.17,24.52A102.58,102.58,0,0,0,16.22,168l-.7-1.34c-.19-.37-.4-.73-.57-1.1l-.46-1.13c-.29-.76-.65-1.5-.9-2.26a32.14,32.14,0,0,1-1.6-9.28,32.39,32.39,0,0,1,1.6-9.28c.25-.76.61-1.5.9-2.26l.46-1.13c.17-.37.38-.73.57-1.1l1.15-2.2,1.37-2.13A70.29,70.29,0,0,1,32.37,119.4c11.16-9.21,24.27-16.5,37.68-23a423.31,423.31,0,0,1,41.73-16.94C126,74.48,140.46,70,155,66c29.18-8,58.79-14.76,88.6-20.5s59.82-10.61,89.93-14.76C393.79,22.4,454.38,16.5,515.12,12.58s121.61-6.06,182.5-6.49,121.81.85,182.64,4.09q22.81,1.21,45.6,2.82t45.55,3.59q10.26.91,20.51,1.89C1063.25,25.76,1129,35.74,1186.4,48.17ZM82.4,377.52q-8.81,3.64-17.48,7.71c-6.57,3.18-13.11,6.55-19.47,10.27A135.16,135.16,0,0,1,32.36,386a85.24,85.24,0,0,1-9-8.5,85.23,85.23,0,0,1,9-8.5,135.18,135.18,0,0,1,13.09-9.48c6.36,3.72,12.89,7.09,19.46,10.27Q73.58,373.91,82.4,377.52Zm-37-131.8a135.16,135.16,0,0,1-13.08-9.48,85.25,85.25,0,0,1-9-8.5,85.22,85.22,0,0,1,9-8.5,135.19,135.19,0,0,1,13.09-9.48c6.36,3.72,12.89,7.09,19.46,10.27q8.65,4.09,17.48,7.7-8.81,3.64-17.48,7.71C58.35,238.64,51.81,242,45.45,245.73Zm491.64,56.89q-11.24.51-22.47,1.11-22.86,1.21-45.7,2.82t-45.65,3.6c-30.41,2.68-60.8,5.87-91.09,9.87q-8.5,1.11-17,2.3Q279.27,317,243.63,310.2q-18.23-3.51-36.35-7.54,18.11-4,36.35-7.54,35.71-6.87,71.75-12.15,8.4,1.17,16.8,2.28,22.72,3,45.5,5.42c15.19,1.62,30.38,3.13,45.59,4.44s30.42,2.55,45.65,3.6,30.46,2,45.7,2.82Q525.85,302.12,537.09,302.62Zm-257-25q-19.27,3.09-38.47,6.62c-19.88,3.69-39.71,7.79-59.42,12.47q-13.62-3.36-27.13-7.07-19.64-5.46-38.9-12,19.23-6.57,38.9-12,13.55-3.74,27.23-7.09c19.68,4.67,39.48,8.75,59.33,12.44Q260.79,274.59,280.06,277.66ZM155,315.61q13.55-3.74,27.22-7.09c19.68,4.67,39.48,8.75,59.33,12.44q19.19,3.55,38.46,6.62-19.26,3.09-38.46,6.62c-19.89,3.69-39.71,7.79-59.43,12.47q-13.62-3.36-27.13-7.07-19.64-5.46-38.9-12Q135.37,321,155,315.61Zm725.44-9.49q-32.1-2.11-64.25-3.5,32.14-1.41,64.25-3.49,43.32-2.8,86.54-7c39.47-3.61,77.38-8,113.29-13.21,37.75,5.46,73.28,11.76,106.1,18.87q11,2.37,21.36,4.84-10.41,2.46-21.36,4.84c-32.81,7.11-68.35,13.41-106.09,18.86-34.57-5-71-9.27-108.89-12.8Q926,309,880.47,306.13Zm208.44-28.45c34.74-5.18,67.55-11.09,98-17.69q13.52-2.93,26.2-6c30.35,7.34,57.1,15.26,80,23.68-22.94,8.42-49.69,16.34-80,23.68q-12.68-3.06-26.2-6C1156.46,288.76,1123.65,282.86,1088.91,277.68Zm98,32.24q13.53-2.93,26.2-6c30.35,7.34,57.1,15.25,80,23.68-22.94,8.42-49.69,16.33-80,23.68q-12.69-3.06-26.2-6c-30.47-6.6-63.27-12.5-98-17.68C1123.66,322.42,1156.47,316.52,1186.93,309.92Zm-115.53-32.24c-26.66,3.73-54.4,7-83,9.91q-8.49.8-17,1.56-22.76,2-45.55,3.59t-45.6,2.82c-59.51,3.18-119.1,4.4-178.67,4.11l-4,0h-4q-89.34-.74-178.51-6.44c-54-3.5-108-8.53-161.61-15.48,53.65-6.93,107.58-12,161.61-15.48q91.1-6,182.5-6.49c60.89-.36,121.81.85,182.64,4.09q22.81,1.21,45.6,2.82t45.55,3.59q9.72.86,19.44,1.79C1018.59,270.84,1045.51,274.06,1071.41,277.68ZM152,254.51c-14.8,4.06-29.5,8.51-44.06,13.55q-4.68,1.61-9.33,3.32c-9.69-3.7-19.22-7.73-28.53-12.13-4.29-2.08-8.54-4.25-12.72-6.53,4.18-2.28,8.43-4.45,12.72-6.53,9.32-4.41,18.88-8.43,28.58-12.14q4.63,1.7,9.28,3.31c14.55,5,29.26,9.49,44.06,13.55,2.26.62,4.52,1.21,6.78,1.8C156.48,253.3,154.22,253.89,152,254.51ZM70,296.11c9.32-4.41,18.88-8.43,28.58-12.14q4.63,1.7,9.28,3.31c14.55,5,29.26,9.49,44.06,13.55,2.26.62,4.52,1.21,6.78,1.8-2.26.6-4.53,1.19-6.78,1.81-14.8,4.06-29.5,8.51-44.06,13.55q-4.68,1.61-9.33,3.32c-9.69-3.7-19.22-7.73-28.53-12.13-4.29-2.08-8.54-4.25-12.72-6.53C61.5,300.37,65.75,298.19,70,296.11ZM70,346c9.32-4.41,18.88-8.43,28.58-12.14q4.63,1.7,9.28,3.31c14.55,5,29.26,9.49,44.06,13.55,2.26.62,4.52,1.21,6.78,1.8-2.26.6-4.53,1.19-6.78,1.81-14.8,4.06-29.5,8.51-44.06,13.55q-4.68,1.61-9.33,3.32c-9.69-3.7-19.22-7.73-28.53-12.13-4.29-2.08-8.54-4.25-12.72-6.53C61.5,350.29,65.75,348.12,70,346Zm901.36-7q-22.76,2-45.55,3.59t-45.6,2.82c-60.83,3.25-121.75,4.46-182.64,4.1s-121.77-2.5-182.5-6.48c-54-3.5-108-8.53-161.61-15.48,53.65-6.93,107.58-12,161.62-15.48q91.1-6,182.5-6.49c60.89-.36,121.81.85,182.64,4.09q22.81,1.21,45.6,2.82t45.55,3.59q9.73.86,19.45,1.79c27.75,2.82,54.66,6,80.56,9.66-26.67,3.73-54.41,7-83,9.91Q979.9,338.32,971.41,339.07Zm215-91.19q11,2.37,21.36,4.83-10.41,2.46-21.36,4.83c-32.82,7.11-68.35,13.41-106.1,18.87-34.72-5-71.3-9.3-109.35-12.85q-45.17-4.47-90.47-7.37-91.29-6-182.86-6.5c-61-.36-122,.85-183,4.11q-22.86,1.21-45.7,2.82t-45.65,3.6c-30.41,2.68-60.8,5.87-91.09,9.87q-8.49,1.11-17,2.3-35.93-5.32-71.57-12.13-18.23-3.51-36.34-7.54,18.11-4,36.35-7.54,44.72-8.6,89.93-14.76c60.22-8.32,120.82-14.21,181.56-18.14s121.61-6.06,182.5-6.49,121.81.85,182.64,4.09q22.81,1.21,45.6,2.82t45.55,3.59q10.25.91,20.5,1.89C1063.25,225.47,1129,235.44,1186.4,247.88ZM64.92,270q8.65,4.09,17.48,7.7-8.81,3.64-17.48,7.71c-6.57,3.18-13.1,6.55-19.47,10.27a135.22,135.22,0,0,1-13.09-9.48,85.25,85.25,0,0,1-9-8.5,85.22,85.22,0,0,1,9-8.5,135.18,135.18,0,0,1,13.09-9.48C51.82,263.42,58.35,266.79,64.92,270Zm0,49.93q8.65,4.09,17.48,7.7-8.81,3.64-17.48,7.71c-6.57,3.18-13.1,6.55-19.47,10.27a135.24,135.24,0,0,1-13.09-9.48,85.26,85.26,0,0,1-9-8.5,85.23,85.23,0,0,1,9-8.5,135.18,135.18,0,0,1,13.09-9.48C51.82,313.35,58.35,316.71,64.92,319.89ZM971.41,389q-22.76,2-45.55,3.59t-45.6,2.82c-60.83,3.25-121.75,4.46-182.64,4.1S575.85,397,515.12,393s-121.33-9.8-181.56-18.15q-45.17-6.22-89.93-14.76-18.23-3.51-36.35-7.54,18.11-4,36.35-7.54,35.71-6.87,71.74-12.15,8.4,1.17,16.81,2.28,22.72,3,45.5,5.42c15.19,1.62,30.38,3.13,45.59,4.44s30.42,2.55,45.65,3.6,30.46,2,45.7,2.82c61,3.25,122,4.47,183,4.11s122-2.51,182.85-6.49q43.54-2.81,87-7c39.31-3.6,77.08-8,112.87-13.17,37.74,5.46,73.28,11.76,106.09,18.86q11,2.37,21.36,4.84-10.41,2.46-21.36,4.84c-58.14,12.59-124.83,22.66-197.23,30Q980.29,388.21,971.41,389Zm362.91-29.17a363.53,363.53,0,0,1-37.54,16.36c-22.37-8.35-48.56-16.26-78.38-23.62,29.81-7.36,56-15.27,78.38-23.62a363.5,363.5,0,0,1,37.54,16.36q7,3.6,13.16,7.26Q1341.35,356.22,1334.32,359.83Zm0-49.93a363.53,363.53,0,0,1-37.54,16.36c-22.37-8.35-48.57-16.26-78.38-23.62,29.82-7.36,56-15.27,78.38-23.62a363.53,363.53,0,0,1,37.54,16.36q7,3.6,13.16,7.26Q1341.35,306.3,1334.32,309.9Zm0-49.93a363.5,363.5,0,0,1-37.54,16.36c-22.37-8.35-48.57-16.26-78.38-23.62,29.82-7.36,56-15.27,78.38-23.62a363.49,363.49,0,0,1,37.54,16.36q7,3.61,13.16,7.26Q1341.35,256.37,1334.32,260ZM1186.4,198c41.59,9,77.31,19,106.77,29.8-22.94,8.42-49.69,16.34-80,23.68q-12.68-3.06-26.2-6C1123.54,231.71,1050,221,970,213.55q-44.71-4.41-89.56-7.28-91.29-6-182.86-6.5c-61-.36-122,.85-183,4.11q-22.86,1.21-45.7,2.82t-45.65,3.6c-30.41,2.68-60.8,5.87-91.09,9.87s-60.51,8.63-90.6,14.19c-19.88,3.69-39.71,7.79-59.42,12.47q-13.62-3.36-27.13-7.07-19.64-5.46-38.9-12,19.23-6.57,38.9-12c29.18-8,58.79-14.76,88.6-20.5s59.82-10.61,89.93-14.76c60.22-8.32,120.82-14.21,181.56-18.14s121.61-6.06,182.5-6.49,121.81.85,182.64,4.09q22.81,1.21,45.6,2.82t45.55,3.59q10.24.91,20.47,1.89C1063.23,175.54,1129,185.51,1186.4,198Zm-215,241q-22.76,2-45.55,3.59t-45.6,2.82c-60.83,3.25-121.75,4.46-182.64,4.1s-121.77-2.5-182.5-6.48-121.33-9.8-181.56-18.15q-45.17-6.22-89.93-14.76c-29.81-5.73-59.42-12.46-88.6-20.51q-19.64-5.46-38.9-12,19.23-6.57,38.9-12,13.55-3.74,27.22-7.09c19.68,4.67,39.48,8.75,59.33,12.44q45.12,8.33,90.59,14.19,22.72,3,45.5,5.42c15.19,1.62,30.38,3.13,45.59,4.44s30.42,2.55,45.65,3.6,30.46,2,45.7,2.82c61,3.25,122,4.47,183,4.11s122-2.51,182.85-6.49q43.32-2.8,86.54-7c81.16-7.43,155.74-18.26,219.92-32.16q13.53-2.93,26.2-6c30.35,7.34,57.1,15.25,80,23.68-29.46,10.82-65.18,20.79-106.77,29.8-58.15,12.59-124.85,22.66-197.26,30Q980.28,438.14,971.41,438.92Zm328.92-61.39c19.63-7.51,36.21-15.36,49.57-23.5q18.68,11.53,28.23,23.5-9.54,11.95-28.23,23.5C1336.53,392.9,1320,385,1300.33,377.53Zm0-49.93c19.63-7.51,36.21-15.36,49.57-23.5q18.68,11.53,28.23,23.5-9.54,11.95-28.23,23.5C1336.53,343,1320,335.11,1300.33,327.6Zm0-49.93c19.64-7.51,36.21-15.37,49.57-23.5q18.68,11.53,28.23,23.5-9.54,11.95-28.23,23.5C1336.53,293,1320,285.19,1300.33,277.68Zm0-49.93c19.63-7.51,36.21-15.36,49.57-23.5q18.69,11.53,28.23,23.5-9.54,11.95-28.23,23.5C1336.53,243.12,1320,235.26,1300.33,227.75ZM1186.4,148c63.41,13.73,113.18,29.71,147.91,47.5q7,3.6,13.16,7.26-6.12,3.66-13.16,7.26a363.48,363.48,0,0,1-37.54,16.36c-29.93-11.17-66.7-21.56-109.85-30.9C1123.53,181.78,1050,171,970,163.62q-44.69-4.4-89.51-7.27-91.29-6-182.86-6.5c-61-.36-122,.85-183,4.11q-22.86,1.21-45.7,2.82t-45.65,3.6c-30.41,2.68-60.8,5.87-91.09,9.87s-60.51,8.63-90.6,14.19-60,12.06-89.63,20.15c-14.8,4.06-29.5,8.51-44.06,13.55q-4.68,1.61-9.33,3.32c-9.69-3.7-19.22-7.73-28.53-12.13-4.29-2.08-8.54-4.25-12.72-6.53,4.18-2.28,8.43-4.45,12.72-6.53a423.31,423.31,0,0,1,41.73-16.94c14.23-5,28.69-9.43,43.26-13.48,29.18-8,58.79-14.76,88.6-20.5s59.82-10.61,89.93-14.76c60.22-8.32,120.82-14.21,181.56-18.14s121.61-6.06,182.5-6.49,121.81.85,182.64,4.09q22.81,1.21,45.6,2.82t45.55,3.59q10.28.91,20.54,1.9C1063.28,125.62,1129,135.59,1186.4,148Zm-215,340.83q-22.76,2-45.55,3.59t-45.6,2.82c-60.83,3.25-121.75,4.46-182.64,4.1s-121.77-2.5-182.5-6.48-121.33-9.8-181.56-18.15q-45.17-6.22-89.93-14.76c-29.81-5.73-59.42-12.46-88.6-20.51-14.58-4.06-29-8.5-43.27-13.48A421.14,421.14,0,0,1,70,409c-4.29-2.08-8.54-4.25-12.72-6.53C61.5,400.22,65.75,398,70,396c9.32-4.41,18.88-8.43,28.58-12.14q4.63,1.7,9.28,3.31c14.55,5,29.26,9.49,44.06,13.55,29.6,8.08,59.55,14.55,89.63,20.14s60.3,10.24,90.59,14.19q22.72,3,45.5,5.42c15.19,1.62,30.38,3.13,45.59,4.44s30.42,2.55,45.65,3.6,30.46,2,45.7,2.82c61,3.25,122,4.47,183,4.11s122-2.51,182.85-6.49q43.33-2.8,86.56-7c81.15-7.43,155.72-18.26,219.9-32.16,43.15-9.34,79.92-19.73,109.85-30.9a363.5,363.5,0,0,1,37.54,16.36q7,3.61,13.16,7.26-6.12,3.66-13.16,7.26c-34.74,17.79-84.5,33.77-147.91,47.5-58.16,12.6-124.87,22.67-197.29,30Q980.26,488.07,971.41,488.85Zm215-390.76c63.41,13.73,113.18,29.71,147.91,47.5q30.6,15.67,43.81,32.22-9.54,11.95-28.23,23.5c-34.16-20.78-89.27-39.78-163-55.74C1123.53,131.85,1050,121.11,970,113.7q-44.69-4.4-89.53-7.28-91.29-6-182.86-6.5c-61-.36-122,.85-183,4.11q-22.86,1.21-45.7,2.82t-45.65,3.6c-30.41,2.68-60.8,5.87-91.09,9.87s-60.51,8.63-90.6,14.19-60,12.06-89.63,20.15c-14.8,4.06-29.5,8.51-44.06,13.55a420,420,0,0,0-43,17.32c-6.57,3.18-13.1,6.55-19.47,10.27a135.2,135.2,0,0,1-13.09-9.48,85.26,85.26,0,0,1-9-8.49,85.22,85.22,0,0,1,9-8.5c11.16-9.21,24.27-16.5,37.68-23a423.31,423.31,0,0,1,41.73-16.94C126,124.4,140.46,120,155,115.9c29.18-8,58.79-14.76,88.6-20.5s59.82-10.61,89.93-14.76c60.22-8.32,120.82-14.21,181.56-18.14S636.72,56.45,697.62,56s121.81.85,182.64,4.09q22.81,1.21,45.6,2.82t45.55,3.59q10.26.91,20.52,1.9C1063.26,75.69,1129,85.67,1186.4,98.1ZM13.6,193.51c.25-.76.61-1.5.9-2.26l.46-1.13c.17-.37.38-.73.57-1.1l.71-1.35a102.58,102.58,0,0,0,8.52,7.84c3.14,2.58,6.37,5,9.67,7.26-3.3,2.27-6.53,4.68-9.67,7.27a102.57,102.57,0,0,0-8.53,7.85l-.7-1.34c-.19-.37-.4-.73-.57-1.1l-.46-1.13c-.29-.76-.65-1.5-.9-2.26a27.7,27.7,0,0,1,0-18.56Zm0,49.93c.25-.76.61-1.5.9-2.26L15,240c.17-.37.38-.73.57-1.1l.71-1.34a102.58,102.58,0,0,0,8.52,7.84c3.14,2.58,6.37,5,9.67,7.26-3.3,2.27-6.53,4.68-9.67,7.27a102.54,102.54,0,0,0-8.53,7.85l-.7-1.34c-.19-.37-.4-.73-.57-1.1l-.46-1.13c-.29-.76-.65-1.5-.9-2.26a27.7,27.7,0,0,1,0-18.56Zm0,49.93c.25-.76.61-1.5.9-2.26L15,290c.17-.37.38-.73.57-1.1l.71-1.34a102.56,102.56,0,0,0,8.52,7.84c3.14,2.58,6.37,5,9.67,7.26-3.3,2.27-6.53,4.68-9.67,7.27a102.58,102.58,0,0,0-8.53,7.85l-.7-1.34c-.19-.37-.4-.73-.57-1.1l-.46-1.13c-.29-.76-.65-1.5-.9-2.26a27.7,27.7,0,0,1,0-18.56Zm0,49.93c.25-.76.61-1.5.9-2.26L15,339.9c.17-.37.38-.73.57-1.1l.71-1.35a102.58,102.58,0,0,0,8.52,7.84c3.14,2.58,6.37,5,9.67,7.26-3.3,2.27-6.53,4.68-9.67,7.27a102.58,102.58,0,0,0-8.53,7.85l-.7-1.34c-.19-.37-.4-.73-.57-1.1l-.46-1.13c-.29-.76-.65-1.5-.9-2.26a27.7,27.7,0,0,1,0-18.56Zm0,49.93c.25-.76.61-1.5.9-2.26l.46-1.13c.17-.37.38-.73.57-1.1l.71-1.34a102.58,102.58,0,0,0,8.52,7.84c3.14,2.58,6.37,5,9.67,7.26-3.3,2.27-6.53,4.68-9.67,7.27a102.54,102.54,0,0,0-8.53,7.85l-.7-1.34c-.19-.37-.4-.73-.57-1.1L14.49,414c-.29-.76-.65-1.5-.9-2.26a27.7,27.7,0,0,1,0-18.56ZM971.41,538.78q-22.76,2-45.55,3.59t-45.6,2.82c-60.83,3.25-121.75,4.46-182.64,4.1s-121.77-2.5-182.5-6.48S393.78,533,333.56,524.66q-45.17-6.22-89.93-14.76c-29.81-5.73-59.42-12.46-88.6-20.51-14.58-4.06-29-8.5-43.27-13.48A421.14,421.14,0,0,1,70,459c-13.41-6.5-26.52-13.78-37.68-23a85.25,85.25,0,0,1-9-8.5,85.22,85.22,0,0,1,9-8.5,135.18,135.18,0,0,1,13.09-9.48c6.37,3.72,12.89,7.09,19.47,10.27a422,422,0,0,0,43,17.31c14.55,5,29.26,9.49,44.06,13.55,29.6,8.08,59.55,14.55,89.63,20.14s60.3,10.24,90.59,14.19q22.72,3,45.5,5.42c15.19,1.62,30.38,3.13,45.59,4.44s30.42,2.55,45.65,3.6,30.46,2,45.7,2.82c61,3.25,122,4.47,183,4.11s122-2.51,182.85-6.49q43.32-2.8,86.53-7c81.16-7.43,155.74-18.26,219.93-32.16,73.7-16,128.81-35,163-55.74q18.68,11.53,28.23,23.5Q1365,444,1334.32,459.68c-34.74,17.79-84.5,33.77-147.91,47.5-58.16,12.59-124.86,22.67-197.28,30Q980.27,538,971.41,538.78Zm380.86-336c11.84-7.45,21-15.12,27.39-23,5.54,7.56,8.33,15.23,8.33,23s-2.8,15.41-8.33,23C1373.27,217.91,1364.11,210.24,1352.26,202.79Zm27.39,222.68c-6.38-7.84-15.55-15.52-27.39-23,11.84-7.45,21-15.12,27.39-23,5.54,7.56,8.33,15.23,8.33,23S1385.19,417.9,1379.66,425.46Zm0-49.93c-6.38-7.84-15.55-15.52-27.39-23,11.84-7.45,21-15.12,27.39-23,5.54,7.56,8.33,15.23,8.33,23S1385.19,368,1379.65,375.54Zm0-49.93c-6.38-7.84-15.55-15.52-27.39-23,11.84-7.45,21-15.12,27.39-23,5.54,7.56,8.33,15.23,8.33,23S1385.19,318,1379.65,325.61Zm0-49.93c-6.38-7.84-15.55-15.52-27.39-23,11.84-7.45,21-15.12,27.39-23,5.54,7.56,8.33,15.23,8.33,23S1385.19,268.12,1379.66,275.68Z"/><path class="cls-1" d="M128.34,599.39l30.94,9.41A12.48,12.48,0,1,1,152,632.68l-2.09-.64c-1.49-.46-2.43.08-2.72,1a3.43,3.43,0,0,0,0,1.59l7,32.45-11.7-3.56-6.81-33.43c-.15-.7-.49-2.56-2.17-3.07-2-.6-2.77.91-3.11,2l-8.57,28.18-10.13-3.08Zm9.36,19.55,14.95,4.55c2.43.74,4.28-.13,4.91-2.18s-.43-3.81-2.86-4.55l-14.95-4.55c-2.43-.74-4.28.13-4.91,2.18S135.28,618.2,137.71,618.94Z"/><path class="cls-1" d="M178.18,614l36.28,8.68-2.08,8.7-22.11-5.29c-2.39-.57-4.18.33-4.68,2.42s.65,3.85,3,4.42l22.11,5.29L208.65,647l-21.73-5.2a4.06,4.06,0,0,0-5.27,3.24l-3.39,14.17a4.07,4.07,0,0,0,3.23,5.31l21.73,5.2-2.08,8.7-36.28-8.69Z"/><path class="cls-1" d="M214.39,661.95l.51-2.61,10.35,2-.47,2.38c-1.28,6.52,1.8,11.1,8.32,12.38,6.13,1.2,10.41-1.14,11.49-6.22,1-4.7-1.71-7.94-7.25-9.11l-3.89-.84c-10.84-2.37-16.22-9.43-14.21-19.67s11-15.2,22.64-12.91c12.73,2.5,18.87,10.55,16.69,21.63l-.49,2.49-10.35-2,.44-2.26c1.08-5.48-2-9.43-8.18-10.64-5.4-1.06-9.48,1-10.34,5.45-.83,4.25,1.83,7.29,7.26,8.43l3.93.85c10.87,2.41,16.31,9.57,14.27,20-2.2,11.23-11.22,16.39-23.94,13.89C218.21,682.64,212,674,214.39,661.95Z"/><path class="cls-1" d="M262.41,670.25l2.83-17.47c2-12.3,12.19-19.08,25.45-16.93s20.77,11.79,18.77,24.09l-2.83,17.47c-2,12.42-12.17,19.2-25.43,17.05S260.41,682.67,262.41,670.25Zm20.29,15c7,1.14,12.46-2.93,13.64-10.18l2.58-16c1.17-7.25-2.71-12.82-9.73-14s-12.46,2.93-13.64,10.18l-2.58,16C271.8,678.5,275.69,684.07,282.71,685.21Z"/><path class="cls-1" d="M320.94,641.65l10.5,1.39,14.17,11.14c2.78,2.22,5.17,1.16,5.63-2.33l.81-6.08,10.5,1.39L355,703.95l-10.49-1.39,4-29.82a5.51,5.51,0,0,0-2.25-5.62l-11.45-9c-2.79-2.14-5.17-1.16-5.63,2.33l-5.24,39.42-10.49-1.39Z"/><path class="cls-1" d="M383.87,649.59l16.85,1.83L409.66,710l-11.14-1.21-.66-4.43a4.91,4.91,0,0,0-4.53-4.26l-13.2-1.43a4.92,4.92,0,0,0-5.34,3.19L373.23,706l-10.68-1.16Zm.83,40.56,6,.65c4.7.51,4.44-3.64,4.37-4.44l-3.08-26a1.1,1.1,0,0,0-.93-1.16c-.7-.08-1,.44-1.12.94l-8.58,24.73C381.14,685.64,380,689.64,384.7,690.15Z"/><path class="cls-1" d="M422.56,662.58l-9.81-.89.81-8.91,39.84,3.61-.81,8.91-10.19-.92a4.4,4.4,0,0,0-4.88,4.07l-4,43.66-10.5-1L427,667.88A4.74,4.74,0,0,0,422.56,662.58Z"/><path class="cls-1" d="M471.31,657.75l-4.43,57.09L456.33,714l4.43-57.09Z"/><path class="cls-1" d="M482.12,658.61l10.57.67,14.89,10.15c2.92,2,5.23.8,5.46-2.71l.39-6.12,10.57.67-3.65,57.15-10.57-.67,1.92-30a5.51,5.51,0,0,0-2.63-5.45L497,674c-2.93-1.95-5.23-.8-5.46,2.71L489,716.44l-10.57-.67Z"/><path class="cls-1" d="M531.38,699.18l.8-17.67c.56-12.45,9.92-20.35,23.34-19.74s22,9.33,21.4,22.2l-10.53-.48c.31-6.95-4.18-12-11.29-12.36s-12,4.34-12.38,11.68L542,699c-.33,7.33,4.09,12.42,11.5,12.76,6.24.28,11.35-2.92,11.68-10.18l0-.51c.14-3.2-1.56-4.41-4.92-4.56l-14.08-.64.41-8.93,30.12,1.37L576.19,700c-.62,13.77-9.94,21.68-23.36,21.07S530.81,711.74,531.38,699.18Z"/><path class="cls-1" d="M600.36,703l.06-2.66,10.54.24-.06,2.42c-.15,6.64,3.66,10.63,10.3,10.79,6.25.14,10.07-2.89,10.27-8.08.19-4.8-3-7.53-8.69-7.74l-4-.17c-11.08-.49-17.59-6.54-17.35-17s8.24-16.84,20.11-16.57c13,.3,20.38,7.19,20.12,18.47l-.06,2.54L631.09,685l.05-2.3c.13-5.58-3.58-9-9.87-9.1-5.51-.13-9.16,2.64-9.27,7.13-.1,4.33,3,6.87,8.59,7.07l4,.17c11.12.53,17.7,6.66,17.46,17.28-.26,11.44-8.27,18.05-21.23,17.75C607.64,722.73,600.08,715.29,600.36,703Z"/><path class="cls-1" d="M651.44,665.67l37.3.31-.07,8.95-22.73-.19c-2.46,0-4,1.26-4,3.41s1.49,3.61,4,3.63l22.73.19-.07,9-22.34-.18a4.06,4.06,0,0,0-4.41,4.34l-.12,14.57a4.07,4.07,0,0,0,4.34,4.45l22.34.18-.07,8.95-37.3-.31Z"/><path class="cls-1" d="M698.61,666l10.59-.07.28,43.91c0,2.81,1.63,4.4,4.4,4.39l22.34-.14.06,8.95-37.3.23Z"/><path class="cls-1" d="M780,664.84l-14.14,57.56-17.42.33-16.29-57,11.45-.22,12.58,47c.13.5.41,1,1.08,1s.89-.56,1-1.07L769,665Z"/><path class="cls-1" d="M786.67,664.66l37.28-1.31.32,8.94-22.72.8c-2.46.09-3.94,1.43-3.86,3.57s1.65,3.54,4.11,3.45l22.72-.8.32,9-22.33.79a4.06,4.06,0,0,0-4.22,4.53l.51,14.56a4.07,4.07,0,0,0,4.53,4.26l22.33-.79.31,8.94-37.28,1.31Z"/><path class="cls-1" d="M833.26,701.39l-.14-2.65,10.53-.54.12,2.42c.34,6.63,4.44,10.33,11.07,10,6.24-.32,9.83-3.63,9.64-8.83-.17-4.8-3.58-7.29-9.24-7.08l-4,.13c-11.09.33-18-5.22-18.56-15.64s7-17.41,18.83-18c13-.66,20.87,5.66,21.44,16.94l.13,2.54-10.54.54-.12-2.3c-.29-5.58-4.24-8.66-10.52-8.34-5.5.28-8.95,3.31-8.71,7.8.22,4.33,3.55,6.63,9.09,6.42l4-.13c11.13-.3,18.15,5.33,18.69,15.94.58,11.43-6.91,18.62-19.86,19.29C842,720.54,833.89,713.68,833.26,701.39Z"/></g></g></svg>